<svg xmlns="http://www.w3.org/2000/svg" viewBox="0 0 512 512">
  <rect width="512" height="512" rx="96" fill="#0d0e11"/>
  <defs>
    <linearGradient id="g1" x1="0" y1="0" x2="1" y2="1">
      <stop offset="0%" stop-color="#e8a030"/>
      <stop offset="100%" stop-color="#c97820"/>
    </linearGradient>
    <linearGradient id="g2" x1="0" y1="0" x2="0" y2="1">
      <stop offset="0%" stop-color="rgba(232,160,48,.30)"/>
      <stop offset="100%" stop-color="rgba(232,160,48,0)"/>
    </linearGradient>
  </defs>
  <circle cx="256" cy="256" r="180" stroke="url(#g1)" stroke-width="12" stroke-opacity=".3" fill="none"/>
  <path d="M112 256A144 144 0 0 1 400 256" stroke="url(#g1)" stroke-width="16" stroke-linecap="round" fill="none"/>
  <path d="M256 112C256 112 168 200 168 264A88 88 0 0 0 344 264C344 200 256 112 256 112Z" fill="url(#g2)" stroke="url(#g1)" stroke-width="14" stroke-linejoin="round"/>
  <path d="M148 360Q184 328 216 360" stroke="url(#g1)" stroke-width="13" stroke-linecap="round" fill="none"/>
  <line x1="256" y1="336" x2="256" y2="360" stroke="url(#g1)" stroke-width="13" stroke-linecap="round"/>
  <path d="M296 360Q332 328 368 360" stroke="url(#g1)" stroke-width="13" stroke-linecap="round" fill="none"/>
  <circle cx="256" cy="264" r="22" fill="url(#g1)"/>
</svg>
